<?xml version="1.0" encoding="utf-8"?>
<!-- Generator: Adobe Illustrator 26.3.1, SVG Export Plug-In . SVG Version: 6.00 Build 0)  -->
<svg version="1.1" id="Capa_2_00000098216874704763121000000017743060765570375598_"
	 xmlns="http://www.w3.org/2000/svg" xmlns:xlink="http://www.w3.org/1999/xlink" x="0px" y="0px" viewBox="0 0 644.3 198.9"
	 style="enable-background:new 0 0 644.3 198.9;" xml:space="preserve">
<style type="text/css">
	.st0{fill:#FC9500;}
	.st1{fill-rule:evenodd;clip-rule:evenodd;fill:#FC9500;}
</style>
<path class="st0" d="M217.2,117.6v-62h24.2v55.3c0,14.1,6.7,20.2,19,20.2c12.5,0,19-11.7,19-11.7V55.6h24.2v95.7H281v-13.9
	c0,0-9.1,16.3-28.7,16.3C234,153.7,217.2,140.6,217.2,117.6z"/>
<path class="st0" d="M423.6,90.4c0,28.1-22.6,50.3-51.1,50.3s-51.1-22.2-51.1-50.3c0-28.3,22.6-50.3,51.1-50.3
	C401,40.1,423.6,62.1,423.6,90.4z M399,90.4c0-14.9-10.1-27.7-26.4-27.7s-26.4,12.7-26.4,27.7s10.1,27.7,26.4,27.7
	C388.9,118,399,105.3,399,90.4z"/>
<path class="st0" d="M585.8,89.7v61.6h-24.2V96c0-13.1-5-20.2-17.2-20.2c-12.7,0-18.8,12.3-18.8,12.3v63.2h-24.2V96
	c0-13.1-5-20.2-17.2-20.2c-12.7,0-18.8,12.3-18.8,12.3v63.2h-24.2V55.6h22.6v13.9c0,0,8.7-16.4,28.3-16.4c23,0,29.7,16.8,29.7,16.8
	s8.1-16.8,30.5-16.8C571.7,53.2,585.8,66.7,585.8,89.7z"/>
<path class="st1" d="M75.7,80.7c0-26.2,21.3-47.5,47.5-47.5s47.5,21.3,47.5,47.5c0,17.8-9.8,33.3-24.3,41.4l0,0l14.4,19.1l8.1,10.7
	h30.5L178.9,125l0,0c9.7-12.2,15.5-27.6,15.5-44.3c0-39.4-31.9-71.3-71.3-71.3S51.8,41.3,51.8,80.7S83.7,152,123.1,152
	c8.7,0,17.1-1.6,24.8-4.4l-15.4-20.3l0,0c-3,0.6-6.2,0.9-9.4,0.9C96.9,128.1,75.7,106.9,75.7,80.7z"/>
<path class="st0" d="M350,179.9c0,1.4-0.3,2.6-0.8,3.5c-0.6,0.9-1.3,1.7-2.2,2.3c-0.9,0.6-2,1-3.1,1.2c-1.2,0.3-2.4,0.4-3.6,0.4
	h-10.2v-25.5h10.2c1,0,2,0.1,3,0.3s2,0.6,2.8,1c0.8,0.5,1.5,1.2,2.1,2c0.5,0.8,0.8,1.9,0.8,3.2c0,1.4-0.4,2.6-1.2,3.5
	c-0.8,0.9-1.8,1.6-3,2v0.1c0.7,0.1,1.4,0.3,2,0.7c0.6,0.3,1.2,0.7,1.7,1.2s0.8,1.1,1.1,1.8C349.9,178.3,350,179.1,350,179.9z
	 M343,169.2c0-0.9-0.3-1.5-1-1.9s-1.6-0.6-2.9-0.6h-3v5.3h3.3c1.2,0,2-0.2,2.7-0.7C342.7,170.8,343,170.1,343,169.2z M343.8,179.4
	c0-1.1-0.4-1.8-1.2-2.2c-0.8-0.4-1.9-0.6-3.2-0.6H336v5.8h3.5c0.5,0,1,0,1.5-0.1s1-0.2,1.4-0.5c0.4-0.2,0.8-0.5,1-0.9
	C343.7,180.5,343.8,180,343.8,179.4z"/>
<path class="st0" d="M371.3,187.4l-2-5h-9.9l-1.9,5h-6.7l10.7-25.5h6l10.6,25.5H371.3z M364.5,168.7l-3.2,8.8h6.4L364.5,168.7z"/>
<path class="st0" d="M400.1,179.9c0,1.4-0.3,2.6-0.8,3.5c-0.6,0.9-1.3,1.7-2.2,2.3c-0.9,0.6-2,1-3.1,1.2c-1.2,0.3-2.4,0.4-3.6,0.4
	h-10.2v-25.5h10.2c1,0,2,0.1,3,0.3s2,0.6,2.8,1c0.8,0.5,1.5,1.2,2.1,2c0.5,0.8,0.8,1.9,0.8,3.2c0,1.4-0.4,2.6-1.2,3.5
	c-0.8,0.9-1.8,1.6-3,2v0.1c0.7,0.1,1.4,0.3,2,0.7c0.6,0.3,1.2,0.7,1.7,1.2s0.8,1.1,1.1,1.8C400,178.3,400.1,179.1,400.1,179.9z
	 M393.1,169.2c0-0.9-0.3-1.5-1-1.9s-1.6-0.6-2.9-0.6h-3v5.3h3.3c1.2,0,2-0.2,2.7-0.7C392.8,170.8,393.1,170.1,393.1,169.2z
	 M394,179.4c0-1.1-0.4-1.8-1.2-2.2c-0.8-0.4-1.9-0.6-3.2-0.6h-3.4v5.8h3.5c0.5,0,1,0,1.5-0.1s1-0.2,1.4-0.5c0.4-0.2,0.8-0.5,1-0.9
	S394,180,394,179.4z"/>
<path class="st0" d="M404.2,187.4v-25.5h6.2v25.5H404.2z"/>
<path class="st0" d="M415.6,187.4v-25.5h17.1v5.2h-11.2v4.8h10.6v4.9h-10.6v5.3h11.9v5.3H415.6z"/>
<path class="st0" d="M450.9,168.5c-0.5-0.7-1.2-1.2-2.1-1.6c-0.9-0.4-1.7-0.6-2.5-0.6c-0.4,0-0.8,0-1.2,0.1
	c-0.4,0.1-0.8,0.2-1.1,0.4c-0.3,0.2-0.6,0.5-0.8,0.8c-0.2,0.3-0.3,0.7-0.3,1.2c0,0.4,0.1,0.8,0.3,1.1c0.2,0.3,0.4,0.5,0.8,0.8
	c0.3,0.2,0.8,0.4,1.2,0.6c0.5,0.2,1,0.4,1.6,0.6c0.9,0.3,1.8,0.6,2.7,1s1.8,0.8,2.6,1.4c0.8,0.6,1.4,1.3,1.9,2.1
	c0.5,0.9,0.8,1.9,0.8,3.2c0,1.5-0.3,2.7-0.8,3.8s-1.3,2-2.2,2.6c-0.9,0.7-2,1.2-3.1,1.5c-1.2,0.3-2.4,0.5-3.6,0.5
	c-1.8,0-3.6-0.3-5.3-1c-1.7-0.6-3.1-1.5-4.2-2.7l4-4.1c0.6,0.8,1.4,1.4,2.5,1.9c1,0.5,2,0.8,3,0.8c0.5,0,0.9,0,1.3-0.1
	s0.8-0.3,1.1-0.5c0.3-0.2,0.6-0.5,0.8-0.9c0.2-0.4,0.3-0.8,0.3-1.3s-0.1-0.9-0.4-1.2c-0.2-0.3-0.6-0.6-1-0.9c-0.4-0.3-1-0.5-1.7-0.8
	c-0.7-0.2-1.4-0.5-2.3-0.7c-0.8-0.3-1.6-0.6-2.4-0.9c-0.8-0.4-1.5-0.8-2.1-1.4c-0.6-0.6-1.1-1.2-1.5-2.1c-0.4-0.8-0.6-1.8-0.6-2.9
	c0-1.4,0.3-2.6,0.9-3.6s1.3-1.8,2.3-2.5c0.9-0.6,2-1.1,3.2-1.4c1.2-0.3,2.4-0.5,3.6-0.5c1.4,0,2.9,0.3,4.4,0.8s2.8,1.3,3.9,2.3
	L450.9,168.5z"/>
<path class="st0" d="M485.6,187.4l-2.4-2.5c-0.8,0.9-1.8,1.6-3,2.1c-1.2,0.6-2.7,0.8-4.5,0.8c-1.2,0-2.3-0.1-3.4-0.5
	c-1.1-0.3-2.1-0.8-2.9-1.4c-0.9-0.6-1.5-1.4-2.1-2.4c-0.5-0.9-0.8-2.1-0.8-3.4c0-0.9,0.1-1.7,0.4-2.4s0.7-1.4,1.2-2s1.1-1.1,1.7-1.5
	s1.3-0.8,2-1.1c-0.8-0.8-1.4-1.6-1.9-2.5s-0.7-1.9-0.7-3c0-1.2,0.2-2.1,0.7-3c0.5-0.8,1.1-1.5,1.9-2s1.6-0.9,2.6-1.2
	c0.9-0.2,1.9-0.4,2.8-0.4c1,0,1.9,0.1,2.8,0.4c0.9,0.3,1.8,0.6,2.5,1.2c0.7,0.5,1.3,1.2,1.8,2c0.4,0.8,0.7,1.8,0.7,2.9
	c0,0.8-0.1,1.6-0.4,2.2c-0.3,0.7-0.6,1.3-1.1,1.8s-1,1-1.6,1.5c-0.6,0.4-1.3,0.8-2,1.2l3.2,3.3l2.6-3.9h6.6l-5.5,7.4l6.3,6.3
	L485.6,187.4L485.6,187.4z M475.2,176.6c-0.7,0.3-1.4,0.7-1.9,1.2s-0.8,1.3-0.8,2.2c0,0.5,0.1,1,0.3,1.3c0.2,0.4,0.5,0.7,0.8,1
	s0.7,0.5,1.1,0.6s0.8,0.2,1.3,0.2c0.8,0,1.5-0.2,2.1-0.5s1.2-0.8,1.6-1.4L475.2,176.6z M479.8,167.8c0-0.6-0.2-1.2-0.6-1.7
	s-1-0.7-1.8-0.7c-0.7,0-1.3,0.2-1.7,0.7c-0.5,0.4-0.7,1-0.7,1.7c0,0.6,0.2,1.2,0.5,1.7c0.3,0.6,0.8,1.1,1.4,1.6
	c0.8-0.3,1.5-0.8,2.1-1.3C479.5,169.3,479.8,168.6,479.8,167.8z"/>
<path class="st0" d="M520.3,187.4l-9.5-11.7h-0.1v11.7h-6v-25.5h6v10.4h0.1l9.1-10.4h7.7l-11,11.7l11.6,13.8H520.3z"/>
<path class="st0" d="M530.3,187.4v-25.5h6.2v25.5H530.3z"/>
<path class="st0" d="M565.5,174.5c0,2.2-0.4,4.2-1.2,5.8s-1.9,3-3.3,4s-2.9,1.8-4.6,2.3c-1.7,0.5-3.4,0.7-5.2,0.7h-9.5v-25.5h9.2
	c1.8,0,3.6,0.2,5.3,0.6c1.8,0.4,3.3,1.1,4.7,2.1s2.5,2.3,3.3,3.9C565.1,170.1,565.5,172.1,565.5,174.5z M559.1,174.5
	c0-1.4-0.2-2.6-0.7-3.6s-1.1-1.7-1.9-2.3c-0.8-0.6-1.7-1-2.7-1.2s-2-0.4-3.1-0.4h-3.1v15h2.9c1.1,0,2.2-0.1,3.2-0.4
	c1-0.3,1.9-0.7,2.7-1.2c0.8-0.6,1.4-1.3,1.9-2.3C558.9,177.1,559.1,175.9,559.1,174.5z"/>
<path class="st0" d="M583,168.5c-0.5-0.7-1.2-1.2-2.1-1.6c-0.9-0.4-1.7-0.6-2.5-0.6c-0.4,0-0.8,0-1.2,0.1s-0.8,0.2-1.1,0.4
	s-0.6,0.5-0.8,0.8s-0.3,0.7-0.3,1.2c0,0.4,0.1,0.8,0.3,1.1s0.4,0.5,0.8,0.8c0.3,0.2,0.8,0.4,1.2,0.6c0.5,0.2,1,0.4,1.6,0.6
	c0.9,0.3,1.8,0.6,2.7,1s1.8,0.8,2.6,1.4c0.8,0.6,1.4,1.3,1.9,2.1c0.5,0.9,0.8,1.9,0.8,3.2c0,1.5-0.3,2.7-0.8,3.8s-1.3,2-2.2,2.6
	c-0.9,0.7-2,1.2-3.1,1.5c-1.2,0.3-2.4,0.5-3.6,0.5c-1.8,0-3.6-0.3-5.3-1c-1.7-0.6-3.1-1.5-4.2-2.7l4-4.1c0.6,0.8,1.4,1.4,2.5,1.9
	c1,0.5,2,0.8,3,0.8c0.5,0,0.9,0,1.3-0.1c0.4-0.1,0.8-0.3,1.1-0.5s0.6-0.5,0.8-0.9s0.3-0.8,0.3-1.3s-0.1-0.9-0.4-1.2
	c-0.2-0.3-0.6-0.6-1-0.9c-0.4-0.3-1-0.5-1.7-0.8c-0.7-0.2-1.4-0.5-2.3-0.7c-0.8-0.3-1.6-0.6-2.4-0.9c-0.8-0.4-1.5-0.8-2.1-1.4
	s-1.1-1.2-1.5-2.1c-0.4-0.8-0.6-1.8-0.6-2.9c0-1.4,0.3-2.6,0.9-3.6c0.6-1,1.3-1.8,2.3-2.5c0.9-0.6,2-1.1,3.2-1.4
	c1.2-0.3,2.4-0.5,3.6-0.5c1.4,0,2.9,0.3,4.4,0.8s2.8,1.3,3.9,2.3L583,168.5z"/>
</svg>
